 <svg version="1.0" xmlns="http://www.w3.org/2000/svg" width="700.000000pt" height="700.000000pt" viewBox="0 0 700.000000 700.000000" preserveAspectRatio="xMidYMid meet">
<metadata>
Created by potrace 1.12, written by Peter Selinger 2001-2015
</metadata>
<g transform="translate(0.000000,700.000000) scale(0.100000,-0.100000)" fill="#000000" stroke="none">
<path d="M2227 5376 c-45 -17 -74 -41 -93 -78 -19 -36 -21 -1086 -3 -1121 12
-23 86 -107 402 -461 104 -116 192 -212 196 -214 4 -1 47 44 96 100 316 365
361 406 483 447 83 28 215 29 304 1 129 -40 169 -74 468 -409 l164 -184 31 35
c402 461 554 638 568 658 16 22 17 71 17 571 l0 546 -23 34 c-31 46 -83 79
-124 79 -81 0 -59 23 -718 -735 -71 -82 -208 -240 -304 -350 -96 -110 -177
-200 -181 -200 -7 0 -132 138 -857 946 -161 180 -295 321 -311 328 -49 19 -77
21 -115 7z"></path>
<path d="M4800 752 c0 -276 -2 -311 -17 -323 -12 -10 -51 -14 -147 -14 -72 0
-139 3 -148 7 -16 6 -18 22 -18 127 0 109 2 121 19 131 11 5 74 10 140 10
l121 0 0 70 0 70 -123 0 c-133 0 -172 -7 -224 -42 -59 -40 -73 -85 -73 -237 0
-139 7 -168 54 -219 46 -51 69 -56 246 -57 183 0 216 8 265 67 41 49 45 87 43
410 l-3 303 -67 3 -68 3 0 -309z"></path>
<path d="M890 973 c-21 -26 -21 -34 -18 -298 l3 -272 28 -41 c15 -23 46 -52
70 -64 39 -21 57 -23 290 -26 185 -3 251 -1 262 8 19 16 21 113 3 127 -8 6
-104 9 -243 7 -190 -3 -234 -1 -252 12 -23 14 -23 18 -23 224 l0 210 263 2
262 3 0 65 0 65 -312 3 -311 2 -22 -27z"></path>
<path d="M1620 819 c0 -7 50 -65 111 -130 l111 -119 -29 -34 c-15 -18 -72 -81
-126 -139 -54 -59 -96 -111 -92 -117 3 -5 41 -10 83 -10 l77 0 91 95 91 96 69
-73 c38 -39 79 -82 91 -95 19 -20 32 -23 95 -23 40 0 79 4 87 9 11 7 -16 41
-113 145 -70 75 -126 140 -124 145 2 6 52 62 111 126 59 64 105 120 102 125
-4 6 -43 10 -88 10 l-82 0 -72 -77 -71 -78 -79 78 -78 77 -83 0 c-55 0 -82 -4
-82 -11z"></path>
<path d="M2465 815 c-97 -34 -131 -120 -122 -308 4 -94 8 -112 31 -147 45 -68
77 -78 283 -86 99 -4 192 -4 207 0 25 6 26 10 26 70 l0 64 -40 7 c-22 4 -107
5 -188 3 -115 -2 -153 0 -165 11 -24 19 -25 222 -1 245 13 13 46 16 205 16
l190 0 -3 68 -3 67 -190 2 c-144 2 -200 -1 -230 -12z"></path>
<path d="M3114 820 c-48 -11 -90 -46 -113 -93 -18 -37 -21 -62 -21 -181 0 -98
4 -145 14 -164 19 -36 65 -78 100 -92 37 -14 222 -25 269 -16 l37 7 0 64 0 65
-133 0 c-90 0 -137 4 -145 12 -17 17 -16 228 1 251 11 16 30 17 162 15 l150
-3 9 -27 c8 -22 6 -32 -9 -48 -16 -18 -30 -20 -147 -20 l-128 0 0 -65 0 -65
140 0 c149 0 190 10 232 57 48 53 60 140 29 209 -21 47 -59 77 -116 93 -44 12
-282 13 -331 1z"></path>
<path d="M3780 819 c-47 -14 -105 -72 -119 -118 -6 -21 -11 -92 -11 -157 0
-129 14 -177 61 -221 40 -36 78 -45 211 -51 148 -5 158 -2 158 63 0 77 3 75
-140 75 -162 0 -160 -2 -160 139 0 56 5 111 10 122 10 17 23 19 158 19 155 0
172 -4 172 -44 0 -46 -12 -51 -152 -56 l-133 -5 -3 -62 -3 -63 141 0 c159 0
188 8 237 63 77 88 49 232 -54 283 -31 16 -64 19 -188 21 -82 1 -166 -3 -185
-8z"></path>
<path d="M5165 815 c-60 -21 -101 -71 -115 -141 -16 -75 -8 -246 12 -295 34
-79 113 -109 290 -109 119 0 118 0 118 76 l0 64 -133 0 c-90 0 -137 4 -145 12
-8 8 -12 51 -12 128 0 77 4 120 12 128 17 17 289 17 306 0 19 -19 15 -66 -7
-78 -11 -5 -74 -10 -140 -10 l-120 0 -6 -33 c-4 -19 -5 -47 -3 -63 l3 -29 135
-3 c194 -4 250 24 281 138 23 90 -36 194 -126 219 -59 16 -301 13 -350 -4z"></path>
<path d="M5856 818 c-52 -14 -109 -73 -125 -129 -8 -29 -11 -106 -9 -229 l3
-185 24 -3 c13 -2 44 -1 68 3 l43 6 0 182 c0 149 3 187 16 205 15 21 21 22
175 22 l160 0 -3 68 -3 67 -155 2 c-85 0 -172 -3 -194 -9z"></path>
<path d="M1057 703 c-9 -8 -9 -96 -1 -117 5 -14 33 -16 209 -16 202 0 203 0
209 23 3 12 6 36 6 54 0 65 8 63 -214 63 -112 0 -206 -3 -209 -7z"></path>
<path d="M0 25 c0 -13 396 -15 3500 -15 3104 0 3500 2 3500 15 0 13 -396 15
-3500 15 -3104 0 -3500 -2 -3500 -15z"></path>
</g>
</svg>